
        <svg xmlns="http://www.w3.org/2000/svg" xmlns:xlink="http://www.w3.org/1999/xlink" version="1.1" width="3175.3670073554026" height="593.739560449624" viewBox="0 0 3175.3670073554026 593.739560449624">
			
			<g transform="scale(8.768350367770129) translate(10, 10)">
				<defs id="SvgjsDefs25793"/><g id="SvgjsG25794" featureKey="symbolFeature-0" transform="matrix(0.6202256083488464,0,0,0.6202256083488464,-7.076156439459154,-8.257055502891257)" fill="#fff"><g xmlns="http://www.w3.org/2000/svg"><g><g><g><g><path d="M12.649,58.338c0.097,0.168,0.237,0.439,0.36,0.549C12.94,58.644,12.842,58.451,12.649,58.338z"/><path d="M32.553,17.918l0.211-0.129c-0.052,0-0.099,0-0.143,0L32.553,17.918z"/><path d="M32.621,17.789l0.25-0.461C32.331,17.721,32.409,17.786,32.621,17.789z"/><path d="M15.71,62.018c0.214,0.376,0.462,0.732,0.766,1.025L15.71,62.018z"/><path d="M15.87,57.355c0.049-0.056,0.085-0.148,0.11-0.309C15.919,57.147,15.889,57.253,15.87,57.355z"/><path d="M41.682,88.969c-0.074,0.022-0.144,0.044-0.214,0.065C41.572,89.03,41.645,89.011,41.682,88.969z"/><path d="M45.145,89.04c0.28,0.064,0.528,0.096,0.772,0.12l0.053-0.059C45.848,88.996,45.382,89.026,45.145,89.04z"/><path d="M43.867,88.442l0.687,0.069C44.307,88.467,44.08,88.446,43.867,88.442z"/><path d="M64.193,82.26l-0.044-0.323C64.126,82.094,64.146,82.195,64.193,82.26z"/><path d="M40.845,89.155c0.217-0.013,0.42-0.062,0.623-0.121C41.145,89.043,40.647,88.945,40.845,89.155z"/><path d="M12.493,58.256c0.064,0.019,0.107,0.052,0.156,0.082C12.58,58.229,12.523,58.17,12.493,58.256z"/><path d="M16.702,64.878l-0.014-0.061C16.574,64.571,16.605,64.672,16.702,64.878z"/><path d="M49.989,13.445c0.458-0.013,0.917-0.011,1.377-0.043C50.315,13.254,49.99,13.306,49.989,13.445z"/><path d="M30.331,83.717c0.061-1.052,1.534,0.886,1.855,0.038c-0.863-0.293-1.529-0.523-1.63-1.151       c0.892-0.062,1.554,1.021,2.239,0.5c-0.013,0.031-1.285-0.415-1.285-0.415c-0.527-0.77,0.772-0.691,0.076-1.042       c-0.722,0.15-1.529-0.37-2.159-1.128c-0.642-0.748-1.205-1.576-1.733-1.871l0.406,0.179c0,0-0.297-0.363-0.568-0.747       c-0.255-0.399-0.509-0.799-0.509-0.799c0-0.029,0.025-0.028,0.03-0.049c-0.062,0.025-0.125,0.048-0.188,0.09       c-0.175-0.901-0.965-1.979-2.002-3.03c-0.204-0.003-0.513-0.214-0.876-0.533c-0.362-0.319-0.796-0.731-1.149-1.214       c-0.743-0.937-1.499-1.883-1.908-2.027c0.492,0.43,0.83,0.843,1.171,1.574l-0.649,0.333c-0.858-1.168,0.487-0.465-0.692-1.318       c-0.656,0.758,1.202,1.608,1.708,2.472c-0.394-0.152-0.855-0.442-1.315-0.892c0.292,0.424,0.582,0.844,0.864,1.254       c0.303,0.393,0.629,0.753,0.95,1.089c0.661,0.654,1.317,1.212,2.177,1.332c0.281,0.54-0.203,0.651-0.598,0.427       c1.497,0.591,0.429,1.146,1.73,1.624c-0.458,0.195-1.118-0.245-1.828-0.796c-0.74-0.522-1.374-1.302-2.025-1.6       c-0.196-0.484-0.477-0.932-0.817-1.359c-0.328-0.436-0.665-0.893-1.054-1.32c-0.384-0.432-0.794-0.855-1.199-1.277       c-0.411-0.418-0.728-0.893-1.053-1.335c0.528-0.421,1.784,0.547,1.671-0.38c-0.665-2-1.422-1.547-2.292-2.444       c-0.439-1.458,0.926-0.655-0.045-2.753l0.986,1.046c0.313-1.584-0.928-0.953-1.106-1.979c-0.115,0.403-0.361,0.507,0.179,1.541       c-0.257,0.251-0.798-0.492-0.992-0.879c0,0,0.072,0.269,0.079,0.267c-0.612-0.274-1.117-0.253-1.425-1.766       c0.853,0.698-0.017-1.263,0.114-1.69c-0.011,0.004,0.24,0.33,0.24,0.33c-0.51-0.977-0.669-2.109-0.956-2.749l0.149,0.025       c-0.213-0.371-0.509-0.596-0.772-0.882c-0.236-0.291-0.423-0.648-0.44-1.262c0.296,0.087,1.258,1.345,0.939,0.07       c0.22,0.055,0.394,0.436,0.515,0.949c0.174,0.503,0.309,1.139,0.379,1.728c-0.143-1.183,0.387-1.875,0.778-0.527       c0.446-0.497-0.603-1.218-0.432-2.017c-0.139,0.162-0.355-0.043-0.509,0.042c0.704-0.164-0.359-2.733-0.867-2.747l0.61,1.345       c-0.557,0.198-1.202-1.528-1.441-0.926c0.369-0.385,0.258-1.321,0.064-2.278c-0.174-0.956-0.397-1.94,0.043-2.306l-0.495,0.517       c0.235-1.488,0.043-2.856-0.044-4.26c-0.024-0.706-0.049-1.416-0.074-2.141c-0.007-0.366-0.009-0.738,0-1.115       c0.032-0.373,0.095-0.748,0.162-1.132c-0.001,1.103,0.973,1.373,0.362,3.153c0.622-2.774,1.102-0.648,1.714-1.408       c0.849-1.986-0.638-1.282-0.78-2.015l-0.206,1.523c-0.303-1.064,0.064-2.486,0.65-3.944c0.663-1.443,1.338-2.981,1.741-4.49       c0.372-0.074-0.117,0.639-0.191,1.058c1.136-0.981,0.462-1.243,0.623-2.104c0.327-0.637,0.838-1.253,1.237-1.592       c0.403-0.338,0.718-0.38,0.808,0.174c0.948-1.211-0.463-0.088-0.232-0.91l0.289-0.159c0,0,0.041-0.463,0.083-0.926       c0.016-0.237,0.053-0.463,0.086-0.63c0.03-0.169,0.051-0.282,0.051-0.282c1.037-0.951,2.278-2.076,3.243-2.024       c1.998-2.371-0.527-1.943,0.941-3.807c1.241-0.62,0.197,0.574,0.306,0.851l1.472-1.438c0,1.1-1.483,1.896-0.719,2.485       c0.271-0.904,0.658-1.338,1.112-1.79c0.467-0.444,0.962-0.953,1.703-1.858l-0.166,0.02c0.207-0.559,0.862-1.111,1.585-1.629       c0.729-0.512,1.595-0.88,2.129-1.295c-0.253,0.642-1.534,1.368-2.194,2.116c1.352-0.661,4.397-2.769,5.269-4.037       c0.42-0.125,1.08-0.325,1.518-0.355c0.447-0.009,0.648,0.1,0.134,0.473c2.886-0.892,0.753-1.596,3.365-2.207l0.084,0.639       c0.763,0.04,1.462-0.074,2.139-0.271c0.675-0.203,1.329-0.484,2.006-0.67c1.339-0.406,2.702-0.927,4.102-0.518l0.121-0.784       c0.619,0.297,1.839,0.391,2.067,0.682l-1.382,0.334c1.167,0.609,1.357-0.742,2.792-0.186c0.001-0.236-1.187-0.827-1.194-1.087       c-0.746,0.092-1.489,0.161-2.231,0.213c-0.741,0.068-1.489,0.042-2.223,0.173c-1.468,0.221-2.974,0.268-4.425,0.645       l-2.198,0.485c-0.719,0.215-1.424,0.481-2.131,0.741c-1.435,0.473-2.744,1.265-4.016,2.086c0.249-0.013,0.54-0.036,0.471,0.164       c-0.333,0.063-0.759,0.252-1.082,0.409c-0.319,0.164-0.564,0.25-0.586,0.019l0.156-0.161c-0.63,0.487-1.368,0.707-2.065,0.879       c-0.35,0.086-0.684,0.167-0.985,0.241c-0.287,0.103-0.537,0.219-0.729,0.365c-0.19,0.802-2.8,1.818-1.658,2.099       c-0.014-0.024-1.164,0.246-1.164,0.246c-0.04,0.49,0.379,0.708,0.021,1.265c-0.846,0.67-1.117,0.43-0.635-0.319       c-3.362,2.526-6.433,6.643-8.125,10.595c0,0,0.031-0.309,0.062-0.617c0.032-0.31,0.1-0.604,0.1-0.604       c-0.722,0.814-0.984,3.723-1.601,2.451c-0.313,1.03-0.85,2.37-1.256,3.507c-0.438,1.125-0.561,2.089-0.03,2.315       c-0.676,0.522-1.196,1.734-1.413,3.197c-0.161,1.473-0.328,3.137-0.25,4.607c0.495-0.213,0.531,0.386,0.497,1.134       c-0.04,0.748-0.148,1.658,0.127,2.04c-0.344,0.207-0.629-0.394-0.736-1.066c-0.129-0.67-0.223-1.407-0.472-1.443       c0.279,0.778,0.239,1.677,0.333,2.624c0.052,0.946,0.021,1.942,0.013,2.888c0.105,1.878,0.384,3.557,1.416,3.986       c0.015,0.361-0.059,0.383-0.164,0.279c0.138,0.557,0.007,1.375,0.07,1.957c0.408,0.245,0.249-0.998,0.711,0.3       c0.201,1.076-0.464,0.627-0.584,1.14c0.521,0.944,1.182,2.143,1.744,3.161c0.615,0.976,1.269,1.677,1.678,1.672       c0.073,0.636-0.03,1.426-0.461,0.873c0.249,0.341,0.455,0.64,0.629,0.91c0.188,0.263,0.351,0.491,0.499,0.697       c0.282,0.42,0.47,0.771,0.654,1.127c0.184,0.356,0.363,0.718,0.625,1.156c0.262,0.438,0.684,0.902,1.253,1.52       c-0.697-0.932-1.063,0.033-1.728-1.576c-0.145,0.895,0.75,1.891,1.707,3.016c0.466,0.575,1.065,1.09,1.594,1.642       c0.531,0.55,1.014,1.12,1.371,1.722l1.286,0.235c1.28,0.997,0.921,1.576-0.106,0.979c0.448,0.555,0.877,1.016,1.289,1.416       c0.431,0.379,0.867,0.669,1.281,0.952c0.421,0.271,0.825,0.532,1.237,0.797c0.405,0.274,0.828,0.537,1.298,0.805       c0.063,0.139-0.096,0.204-0.387-0.017l2.669,1.649c0.354,0.017,1.534,0.17,1.525-0.321c-0.261,0.096-0.566,0.127-0.981,0.012       C31.473,84.586,30.983,84.261,30.331,83.717z"/><path d="M32.861,84.7l0.111-0.041l-0.109-0.049C32.874,84.648,32.862,84.671,32.861,84.7z"/><path d="M17.552,63.459c-0.065,0.323-0.067,0.566-0.038,0.758C17.565,64.047,17.598,63.831,17.552,63.459z"/><path d="M60.43,86.046c-0.652-0.933-1.684,0.611-3.013,0.658c1.151-0.463,0.704-0.987,0.49-1.252       c-0.556,0.875-1.04,0.871-1.679,0.756c-0.644-0.116-1.437-0.318-2.761-0.003c-0.095-0.406,1.173-0.697,1.25-1.203       c-0.346,0.141-0.744,0.28-1.151,0.422c-0.411,0.103-0.833,0.2-1.22,0.313c-0.774,0.224-1.419,0.495-1.58,0.888       c-0.637,0.06-1.228,0.009-1.779-0.046c-0.549-0.055-1.06-0.107-1.54-0.155c-0.961-0.064-1.775-0.247-2.54-0.305       c1.848-0.038,0.44-0.688,1.805-1.186c-0.927,0.337-2.45,0.614-4.148,0.831c-1.667,0.089-3.55,0.246-5.052,0.201       c-0.042-0.914-0.116-1.035,0.462-1.64c-2.648-1.586-1.152,0.487-3.718-0.996l1.166,0.727c-1.355-0.371-1.79,0.304-2.45,0.604       c0,0,0.828,0.366,1.656,0.732c0.412,0.186,0.825,0.367,1.153,0.46c0.322,0.106,0.536,0.177,0.536,0.177       c-0.117,0.258-0.712,0.201-1.341,0.002c-0.62-0.22-1.293-0.527-1.635-0.61c-1.302,0.145,1.583,1.313,1.003,1.638       c0.664-0.167,2.009,0.435,2.953,0.584l0.056,0.35c0.386,0.222,0.746,0.381,1.102,0.459c0.36,0.066,0.704,0.086,1.044,0.095       c0.681,0.018,1.341-0.01,2.096,0.189c0.116,0.121,0.124,0.19,0.087,0.235c0.605-0.181,1.241-0.556,2.185-0.527l-0.714-0.072       c1.451-0.51,4.564-0.56,2.635-1.639c0,0,0.215,0.047,0.537,0.118c0.327,0.039,0.763,0.09,1.198,0.142       c0.876,0.103,1.753,0.207,1.753,0.207c-0.402,0.785-1.185,2.018-3.359,1.963l-0.287,0.304c0.782,0.352,1.963,0.199,2.78-0.046       c0.822-0.262,1.283-0.686,0.776-1.059c0.812-0.884,2.139-1.044,3.644-0.974c0.754,0.055,1.538,0.026,2.295-0.063       c0.756-0.083,1.484-0.231,2.09-0.53c0.292,0.494-1.115,0.924-1.71,1.39c-0.791,0.183-1.368,0.281-1.478-0.154       c-1.694,0.279-1.505,0.66-1.351,1.024c0.152,0.353,0.248,0.652-1.757,0.657c-1.944-0.178,2.341-0.97-0.508-0.907       c0,0-0.5,0.403-1.021,0.729c-0.53,0.344-1.061,0.687-1.061,0.687c1.828,0.125,3.466-0.314,4.898-0.538       c3.959-0.865,7.224-1.712,9.509-2.485c1.137-0.39,2.084-0.598,2.692-0.845c0.622-0.216,0.959-0.334,0.959-0.334       s0.495-0.247,1.361-0.68c0.216-0.109,0.454-0.23,0.714-0.362c0.247-0.154,0.515-0.321,0.801-0.499       c0.57-0.358,1.214-0.761,1.916-1.201c2.726-1.873,6.112-4.758,8.812-8.241c2.77-3.432,4.695-7.442,5.797-10.523       c0.271-0.775,0.519-1.485,0.738-2.115c0.159-0.648,0.297-1.212,0.411-1.677c0.225-0.93,0.353-1.461,0.353-1.461       c0.287-1.805,0.358-3.052,0.333-4.018c-0.07-0.97-0.436-1.688-1.116-2.417c-0.167,0.354-0.244,1.063-0.338,1.588       c-0.086,0.526-0.276,0.855-0.46,0.475c0.484,0.419,0.588,1.783,0.245,3.586c-0.534,0.079,0.003-1.697-0.188-1.257l-0.089,0.334       c-0.239-0.234-0.376-0.573-0.305-1.121c-0.275,0.464-0.505,1.038-0.682,1.663c-0.233,0.614-0.434,1.276-0.567,1.939       c-0.151,0.657-0.172,1.337-0.252,1.921c-0.06,0.59-0.043,1.128,0.072,1.554c-1.078,1.34-0.383-1.337-0.531-2.22       c-0.576,1.283-1.046,2.475-1.577,3.576c-0.602,1.068-1.059,2.144-1.68,3.133c-1.213,1.989-2.49,3.967-4.401,6.017       c0.639,0.697,0.06,0.82-0.011,1.856l-0.578,0.12c0.292-0.066,0.198,0.997,1.118,0.278c-2.903,1.819-2.056,3.71-3.8,5.503       l-0.159-0.5c-1.516,1.293-2.063,1.516-3.395,2.66c-3.172,0.847,2.32-1.58,0.926-2.129l-0.652,0.628       c0.186-0.671,0.26-1.607,0.827-2.433c-0.959,1.128-1.93,1.561-2.872,2.038c-0.98,0.425-2.019,0.743-3.297,1.711       c0.122-0.689,2.446-2.193,3.032-2.655c-0.895,0.483-2.424,1.572-2.7,1.174l0.093,0.712c-1.618,0.871-0.034-0.682-0.748-0.822       c-1.927,0.828-1.899,1.353-1.75,1.942C61.923,84.649,62.192,85.288,60.43,86.046z"/><path d="M20.265,71.563c0.276,0.471,0.582,0.828,0.888,1.125C20.874,72.303,20.587,71.922,20.265,71.563z"/><path d="M27.052,77.233c0.095-0.043,0.188-0.069,0.282-0.077C27.183,77.099,27.084,77.119,27.052,77.233z"/><path d="M28.29,77.08c-0.046,0.374-0.443,0.021-0.956,0.076C27.867,77.392,28.976,78.236,28.29,77.08z"/><path d="M84.077,49.912c0.21,0.247,0.475,1.363,0.624,1.088l-0.323-1.643L84.077,49.912z"/><path d="M84.567,46.567l0.013-1.654c0,0-0.268-0.227-0.536-0.455c-0.266-0.224-0.541-0.439-0.541-0.439       C83.789,45.706,84.284,44.844,84.567,46.567z"/><path d="M84.182,41.954l0.309,0.309C84.311,41.95,84.229,41.896,84.182,41.954z"/><path d="M83.789,41.99l-0.805-0.434l1.001,1.918l-0.075-0.817c0.226-0.067,0.183-0.599,0.273-0.702l-0.663-0.652       C83.623,41.476,83.833,41.833,83.789,41.99z"/><path d="M83.266,40.247c-0.049,0.066-0.084,0.144-0.142,0.198C83.207,40.436,83.25,40.361,83.266,40.247z"/><path d="M82.9,35.908c-0.038,0.489-0.756-0.15-1.056-0.137c0.238,0.798,0.596,1.107,0.933,1.411       c0.303,0.315,0.596,0.62,0.698,1.364c-1.266-1.919-0.091,0.907-0.208,1.701c0.45-0.592,0.568-1.516,0.15-3.194l-0.451-0.01       C82.568,36.236,83.005,36.561,82.9,35.908z"/><path d="M77.424,28.959l1.288,0.686c-0.052,0.182,0.238,0.7,0.466,1.204c0.248,0.492,0.326,1.038,0.045,1.159       c0.457,0.578,0.756,0.532,1.218,0.962c-0.001,0.66,0.04,1.1,0.75,1.538c-0.563-1.486-0.775-2.02-0.924-2.522       c-0.174-0.489-0.286-0.957-1.065-2.114c0.149-0.033,0.34,0.263,0.528,0.556l-0.823-1.674c-0.36,0.168-0.9-0.209-1.262-0.41       C77.253,28.166,77.094,28.119,77.424,28.959z"/><path d="M76.051,26.681c0.993,1.033,1.991,1.255,1.815,0.451c0,0-0.622-0.499-1.244-0.998       c-0.308-0.246-0.616-0.492-0.847-0.677c-0.228-0.186-0.405-0.283-0.405-0.283C76.031,25.799,76.797,26.609,76.051,26.681z"/><path d="M74.564,25.162c-0.189-0.615-0.435-1.802-1.598-1.983C74.266,24.225,73.053,24.409,74.564,25.162z"/><path d="M66.361,18.648c0,0,0.151,0.102,0.376,0.254c0.226,0.152,0.529,0.346,0.804,0.59c0.559,0.462,1.118,0.924,1.118,0.924       c0.01,0.995-1.277-0.516-2.229-0.571c1.993,1.319,1.434,0.729,3.284,1.23c0.567,0.395,1.647,0.736,2.465,1.039       c-0.853-0.428-1.419-0.852-1.851-1.263c-0.462-0.364-0.783-0.725-1.098-1.052c-0.315-0.326-0.624-0.618-1.055-0.839       C67.754,18.724,67.182,18.607,66.361,18.648z"/><polygon points="70.787,22.335 71.248,22.257 70.006,21.656      "/><path d="M60.27,15.278c-0.729-0.695-1.614-0.779-2.514-0.794c-0.913,0.023-1.857,0.194-2.823-0.179       c0.22-0.024,0.08-0.128,0.518-0.178c0,0-0.428-0.04-0.857-0.08c-0.214-0.02-0.427-0.04-0.588-0.055       c-0.16-0.018-0.267-0.018-0.267-0.018L53.68,13.75c0.04,0.584-1.739,0.731-2.49,1.145c1.667,0.708,0.913-0.685,2.367,0.069       c-0.388,0.248-0.68,0.636-1.032,0.835c1.021-0.257,1.312-0.573,1.801-0.823c1.114,0.103,0.735,0.386,0.786,0.617       c0.63-0.078,0.989-0.328,1.425-0.496c0.436-0.173,0.956-0.272,1.861,0.088c1.07,0.807-0.886,0.609,1.183,0.921       c-0.379-0.579,0.124-0.412,0.84-0.145c0.721,0.251,1.585,0.768,2.073,0.61c0.705,0.354,1.24,0.751,1.538,1.082       c0.287,0.358,0.342,0.645,0.129,0.727c0.241-0.685,1.734-0.656,2.923-0.31l-2.658-0.609c0.015-0.021-0.511-1.118-0.511-1.118       c-0.773-0.071-1.398-0.212-1.999-0.411c-0.3-0.099-0.594-0.213-0.896-0.338c-0.309-0.1-0.629-0.204-0.97-0.314L60.27,15.278z"/><path d="M52.525,15.799c-0.18,0.044-0.335,0.089-0.565,0.125C52.177,15.952,52.356,15.894,52.525,15.799z"/><polygon points="64.443,18.789 63.832,18.685 64.111,19.09      "/><path d="M51.223,16.339c0.332,0.042,0.465-0.232,0.128-0.273l-0.526,0.369L51.223,16.339z"/><polygon points="49.718,15.75 48.861,15.301 48.352,15.722      "/><path d="M20.137,31.374c0.847-0.775,0.354-0.987,0.109-1.391c-0.582,0.668-0.473,0.754-0.302,0.794       C20.116,30.819,20.352,30.821,20.137,31.374z"/><path d="M15.045,52.252c0.263-1.234-0.186-2.343-0.117-3.573C14.576,49.764,14.651,51.27,15.045,52.252z"/><path d="M18.403,60.701c-0.247-0.223-0.441-0.588-0.359,0.046l-1.28-0.827C16.869,61.716,17.989,60.881,18.403,60.701z"/><path d="M22.763,69.464c0,0-0.083-0.064-0.187-0.173c-0.108-0.108-0.252-0.251-0.397-0.395c-0.291-0.29-0.582-0.58-0.582-0.58       l0.408,0.725c-0.558-0.13-0.881-0.277-1.495-0.639C21.34,69.343,22.261,70.1,22.763,69.464z"/><path d="M19.589,67.211c0.087,0.164,0.212,0.333,0.351,0.505C19.956,67.497,20.014,67.342,19.589,67.211z"/><path d="M20.295,68.273c0.084,0.05,0.143,0.085,0.215,0.128c-0.2-0.227-0.395-0.459-0.571-0.685       C19.927,67.875,19.954,68.068,20.295,68.273z"/><path d="M23.068,70.716c0,0,0.439,0.541,0.877,1.083c0.21,0.278,0.441,0.537,0.634,0.715c0.184,0.186,0.306,0.309,0.306,0.309       s-0.57-0.899-0.544-0.918C23.708,72.113,23.87,70.65,23.068,70.716z"/><path d="M33.679,80.789c0,0-0.012,0.174-0.023,0.348c-0.007,0.169-0.014,0.337-0.014,0.337       c0.802,0.461,1.871,0.639,2.783,0.865c0.929,0.198,1.747,0.355,2.087,1.03c-0.608-0.633,1.625-0.155-0.303-1.049       C37.171,82.629,34.754,81.497,33.679,80.789z"/><path d="M39.523,84.284c-0.34,0.07,0.041,0.358,0.233,0.572c0.629,0.237,1.409,0.143,1.126-0.199       C40.134,85.304,40.327,83.988,39.523,84.284z"/><path d="M47.93,85.726c-0.537-0.014-1.296,0.009-0.526,0.209c1.631,0.046,1.24-0.683,2.042-1.062       C48.166,84.431,46.946,85.343,47.93,85.726z"/><path d="M61.884,88.596c-0.35-0.426-1.722-0.017-2.003,0.254C60.312,88.631,61.205,88.588,61.884,88.596z"/><path d="M60.816,84.263L60.35,84.3l-0.292,0.919c0,0,0.195-0.229,0.391-0.458C60.638,84.52,60.816,84.263,60.816,84.263z"/><path d="M69.294,79.659l0.672-1.153c0,0-0.346,0.286-0.691,0.573c-0.168,0.151-0.354,0.276-0.495,0.367       c-0.139,0.094-0.232,0.156-0.232,0.156L69.294,79.659z"/><path d="M70.853,78.665c0,0,0.317-0.249,0.635-0.497c0.159-0.124,0.317-0.248,0.436-0.341c0.122-0.089,0.192-0.163,0.192-0.163       c0.01,0.014-0.578,0.182-0.578,0.182C70.819,78.18,71.278,78.333,70.853,78.665z"/><path d="M74.45,75.444c-0.117,0.174-0.27,0.195-0.417,0.211l-0.845,1.234L74.45,75.444z"/><path d="M87.854,52.693c0.524,0.422,0.26-1.205,0.405-1.693C88.127,50.91,87.382,51.933,87.854,52.693z"/></g></g></g></g></g></g><g id="SvgjsG25795" featureKey="nameLeftFeature-0" transform="matrix(1.6701533794403076,0,0,1.6701533794403076,65.59474376520296,2.9791054610214847)" fill="#fff"><path d="M13.1 10.0748 c0 1.1434 -0.41042 2.118 -1.2304 2.9244 c0.81994 0.79328 1.2304 1.7684 1.2304 2.9248 c0 0.55158 -0.10752 1.0761 -0.32256 1.5735 c-0.21546 0.49784 -0.50788 0.9314 -0.87764 1.3012 c-0.3702 0.3702 -0.80376 0.6626 -1.3012 0.87764 c-0.49784 0.21546 -1.0223 0.32298 -1.5735 0.32298 l-5.265 0 l0 -2.3401 l5.265 0 c0.2286 0 0.45062 -0.043262 0.66566 -0.13111 c0.21504 -0.087422 0.40342 -0.212 0.5647 -0.37328 s0.28586 -0.34966 0.37328 -0.5647 s0.13113 -0.43664 0.13113 -0.66566 c0 -0.2286 -0.043712 -0.45062 -0.13113 -0.66566 c-0.087852 -0.21504 -0.20892 -0.40342 -0.3632 -0.5647 c-0.15473 -0.16127 -0.3396 -0.28888 -0.55464 -0.3833 c-0.21504 -0.093964 -0.44364 -0.14117 -0.68576 -0.14117 l-7.5849 0 l0 -2.32 l7.5849 0 c0.2286 0 0.45062 -0.046758 0.66566 -0.14117 c0.21504 -0.093964 0.40342 -0.22204 0.5647 -0.38332 c0.16127 -0.16127 0.28584 -0.34964 0.37326 -0.56468 s0.13113 -0.44364 0.13113 -0.68576 c0 -0.2286 -0.043712 -0.45062 -0.13113 -0.66566 c-0.087852 -0.21504 -0.21198 -0.40342 -0.37326 -0.5647 c-0.16129 -0.16127 -0.34966 -0.2854 -0.5647 -0.37324 c-0.21504 -0.087422 -0.43708 -0.13113 -0.66566 -0.13113 l-5.265 0 l-2.32 -2.34 l7.5849 0 c0.5376 0 1.059 0.10795 1.5634 0.32256 c0.50438 0.21546 0.94102 0.50788 1.3112 0.87764 c0.36976 0.3702 0.66216 0.80376 0.87764 1.3012 c0.2146 0.49784 0.32256 1.0223 0.32256 1.5735 z M25.0596 17.6602 l7.0001 0 l0 2.3401 l-9.3197 0 z M25.0596 6 l0 8.4914 l-2.3196 2.3396 l0 -10.831 l2.3195 0 z M48.70020000000001 6 l4.67 9.3406 l-2.6128 -0.00042968 l-2.0572 -4.1154 l-2.0512 4.1154 l-2.3466 4.66 l-2.6023 0 z M54.540000000000006 17.6808 l1.1595 2.3196 l-2.6023 0 l-1.1595 -2.3196 l2.6023 0 z M72.31960000000001 17.6742 l2.3401 0 l0 2.33 l-2.3401 0 l0 -2.33 z M69.12320000000001 12.9936 l7.8765 0 l0 2.3401 l-11.66 0 l4.6758 -9.3298 l2.6023 0 z"/></g><g id="SvgjsG25796" featureKey="nameRightFeature-0" transform="matrix(1.6219959259033203,0,0,1.6219959259033203,198.64810536257747,3.52754786034253)" fill="#fff"><path d="M11.05 19.64 c0.14 0.2 0.06 0.36 -0.18 0.36 l-0.62 0 c-0.16 0 -0.26 -0.04 -0.36 -0.18 l-5.28 -6.84 l-2.1 2.26 l0 4.46 c0 0.18 -0.12 0.3 -0.3 0.3 l-0.46 0 c-0.18 0 -0.3 -0.12 -0.3 -0.3 l0 -13.4 c0 -0.18 0.12 -0.3 0.3 -0.3 l0.46 0 c0.18 0 0.3 0.12 0.3 0.3 l0 7.49 l1.49 -1.61 l-0.01 -0.01 l0.05 -0.05 l5.5 -5.96 c0.1 -0.12 0.22 -0.16 0.36 -0.16 l0.71 0 c0.26 0 0.34 0.18 0.16 0.36 l-5.48 5.89 z M29.914 17.7 l0.32 0.32 c0.15 0.14 0.11 0.29 -0.03 0.42 c-1.31 1.19 -2.75 1.82 -4.64 1.82 c-3.98 0 -6.98 -3.21 -6.98 -7.2 c0 -4.01 3 -7.22 6.98 -7.22 c1.89 0 3.33 0.7 4.64 1.82 c0.14 0.12 0.18 0.28 0.03 0.42 l-0.32 0.32 c-0.15 0.14 -0.28 0.11 -0.42 -0.01 c-1.11 -0.96 -2.32 -1.52 -3.93 -1.52 c-3.26 0 -5.92 2.65 -5.92 6.19 c0 3.52 2.66 6.17 5.92 6.17 c1.61 0 2.82 -0.56 3.93 -1.52 c0.14 -0.12 0.27 -0.15 0.42 -0.01 z M45.388 20.26 c-3.96 0 -7.14 -3.2 -7.14 -7.2 c0 -4.02 3.18 -7.22 7.14 -7.22 c3.94 0 7.12 3.2 7.12 7.22 c0 4 -3.18 7.2 -7.12 7.2 z M45.388 19.3 c3.42 0 6.11 -2.77 6.11 -6.24 c0 -3.49 -2.69 -6.26 -6.11 -6.26 c-3.44 0 -6.13 2.77 -6.13 6.26 c0 3.47 2.69 6.24 6.13 6.24 z M64.072 6 c4.89 0 7.32 3.02 7.32 7 s-2.43 7 -7.32 7 l-2.8 0 c-0.18 0 -0.3 -0.12 -0.3 -0.3 l0 -13.4 c0 -0.18 0.12 -0.3 0.3 -0.3 l2.8 0 z M64.072 18.98 c4.18 0 6.24 -2.31 6.24 -5.98 s-2.06 -5.98 -6.24 -5.98 l-2.04 0 l0 11.96 l2.04 0 z M85.426 12.45 c1.52 0.4 3.04 1.63 3.04 3.69 c0 2.55 -1.95 4.12 -4.81 4.12 c-3.08 0 -4.6 -1.47 -4.6 -3.52 c0 -0.21 0.13 -0.3 0.31 -0.32 l0.4 -0.03 c0.17 -0.02 0.29 0.08 0.29 0.28 c-0.06 1.33 1.05 2.67 3.55 2.67 c2.35 0 3.94 -1.32 3.94 -3.18 c0 -2.07 -1.91 -3.24 -4.61 -3.24 c-0.2 0 -0.3 -0.12 -0.3 -0.3 l0 -0.31 c0 -0.18 0.1 -0.33 0.29 -0.33 c2.66 0 4.03 -1.21 4.03 -2.76 c0 -1.45 -1.24 -2.49 -3.34 -2.49 c-2.29 0 -3.37 1.34 -3.31 2.67 c0.01 0.2 -0.11 0.3 -0.29 0.28 l-0.4 -0.02 c-0.18 -0.02 -0.31 -0.12 -0.31 -0.32 c0 -2.06 1.58 -3.5 4.31 -3.5 c2.68 0 4.28 1.46 4.28 3.42 c0 1.64 -1.2 2.74 -2.47 3.19 z"/></g>
			</g>
		</svg>
	